<mxfile host="app.diagrams.net" modified="2024-04-02T20:26:11.947Z" agent="Mozilla/5.0 (Windows NT 10.0; Win64; x64) AppleWebKit/537.36 (KHTML, like Gecko) Chrome/123.0.0.0 Safari/537.36" version="24.2.0" etag="qFiOLVNaKM6HvSjirwEd" type="github">
  <diagram name="Page-1" id="7t2LEYN8sNlfCKM_Irf8">
    <mxGraphModel>
      <root>
        <mxCell id="0" />
        <mxCell id="1" parent="0" />
      </root>
    </mxGraphModel>
  </diagram>
</mxfile>
